<svg fill="none" height="60" viewBox="0 0 48 60" width="48" xmlns="http://www.w3.org/2000/svg"><g fill="#f1cdb3"><path d="m46.8978 25.4978-5.7549-15.7505v-8.31878c0-.788911-.6397-1.42852-1.4285-1.42852h-31.42855c-.78891 0-1.42852.639727-1.42852 1.42852v8.31867l-5.75519 15.75061c-.682866 1.8658-1.0317507 3.8372-1.0306653 5.8241v23.7546c0 2.7148 2.2086353 4.9235 4.9235153 4.9235h38.01001c2.7149 0 4.9235-2.2087 4.9235-4.9235v-23.7546c0-1.9929-.3468-3.9525-1.0307-5.8241zm-37.18355-22.64065h28.57145v5.7143h-28.57145zm35.35725 47.27495h-20.1638c-.7889 0-1.4285.6397-1.4285 1.4285 0 .7889.6397 1.4285 1.4285 1.4285h20.1638v2.0872c0 1.1394-.927 2.0664-2.0665 2.0664h-38.01001c-1.13941 0-2.06637-.9269-2.06637-2.0664v-23.7544c-.00088-1.6524.28926-3.2919.85711-4.8436l5.49902-15.0497h29.43045l5.499 15.0497c.5679 1.5517.858 3.1912.8572 4.8436z"/><path d="m29.6169 33.805c-.4664-2.9278-3.0091-5.173-6.0664-5.173s-5.6001 2.2452-6.0665 5.173c-2.417.9939-3.9983 3.4706-3.7941 6.1609.2276 2.9978 2.6607 5.4261 5.6591 5.6489 1.1581.0863 2.3082-.152 3.3261-.6889.5564-.2931 1.1946-.2933 1.7505.0001.8829.4648 1.8658.7071 2.8635.706.1538 0 .3083-.0057.4625-.0171 2.9986-.2226 5.4316-2.6511 5.6594-5.6489.2042-2.6904-1.3771-5.1671-3.7941-6.161zm.9451 5.9445c-.1215 1.6005-1.4205 2.8971-3.0218 3.016-.6226.0471-1.2389-.0804-1.7816-.3669-.6805-.3592-1.4385-.5469-2.208-.5469-.7696 0-1.5275.1877-2.2081.5469-.5426.2863-1.1576.4137-1.7817.3669-1.6011-.1188-2.9002-1.4154-3.0217-3.016-.1248-1.6433.9905-3.1371 2.594-3.4749.3257-.0686.6172-.2487.8242-.5093s.3166-.5853.3098-.918l-.0023-.0723c0-1.8118 1.4738-3.2857 3.2857-3.2857 1.8118 0 3.2857 1.4739 3.2857 3.2805l-.0022.0775c-.007.3328.1026.6575.3096.9181.2071.2606.4987.4407.8244.5092 1.6037.3378 2.7188 1.8316 2.594 3.4749z"/><path d="m23.5506 25.7751c2.5602 0 4.6428-2.0827 4.6428-4.6429s-2.0826-4.6429-4.6428-4.6429-4.6429 2.0828-4.6429 4.6429 2.0829 4.6429 4.6429 4.6429zm0-6.4286c.9847 0 1.7857.801 1.7857 1.7857s-.801 1.7857-1.7857 1.7857-1.7857-.801-1.7857-1.7857.8011-1.7857 1.7857-1.7857z"/><path d="m18.1935 26.6561c0-2.5602-2.0828-4.6429-4.6429-4.6429s-4.64283 2.0828-4.64283 4.6429 2.08263 4.6428 4.64283 4.6428 4.6429-2.0827 4.6429-4.6428zm-4.6429 1.7857c-.9847 0-1.7857-.801-1.7857-1.7857s.801-1.7857 1.7857-1.7857 1.7857.801 1.7857 1.7857-.8011 1.7857-1.7857 1.7857z"/><path d="m33.5506 22.0131c-2.5602 0-4.6429 2.0828-4.6429 4.6429 0 2.56 2.0829 4.6428 4.6429 4.6428 2.5601 0 4.6428-2.0826 4.6428-4.6428s-2.0827-4.6429-4.6428-4.6429zm0 6.4287c-.9848 0-1.7857-.801-1.7857-1.7857s.801-1.7857 1.7857-1.7857 1.7857.801 1.7857 1.7857-.801 1.7857-1.7857 1.7857z"/><path d="m18.6934 50.1322h-.3469c-.7889 0-1.4285.6397-1.4285 1.4285 0 .7889.6397 1.4285 1.4285 1.4285h.3469c.7889 0 1.4285-.6397 1.4285-1.4285.0001-.7888-.6395-1.4285-1.4285-1.4285z"/></g></svg>